<mxfile host="app.diagrams.net" agent="Mozilla/5.0 (Windows NT 10.0; Win64; x64) AppleWebKit/537.36 (KHTML, like Gecko) Chrome/135.0.0.0 Safari/537.36" version="26.2.13">
  <diagram name="Page-1" id="58cdce13-f638-feb5-8d6f-7d28b1aa9fa0">
    <mxGraphModel dx="870" dy="468" grid="1" gridSize="10" guides="1" tooltips="1" connect="1" arrows="1" fold="1" page="1" pageScale="1" pageWidth="1100" pageHeight="850" background="none" math="0" shadow="0">
      <root>
        <mxCell id="0" />
        <mxCell id="1" parent="0" />
        <mxCell id="4f30fklRhvHUPw9stEK9-2" value="&lt;div&gt;&lt;font style=&quot;font-size: 12px;&quot;&gt;用户下单&lt;/font&gt;&lt;/div&gt;" style="html=1;verticalAlign=bottom;startArrow=circle;startFill=1;endArrow=open;startSize=6;endSize=8;curved=0;rounded=0;entryX=0;entryY=0.5;entryDx=0;entryDy=0;" parent="1" target="mK-5ngHfiEWChK2sJOaQ-22" edge="1">
          <mxGeometry width="80" relative="1" as="geometry">
            <mxPoint x="70" y="369" as="sourcePoint" />
            <mxPoint x="179.6400000000001" y="368.84000000000003" as="targetPoint" />
          </mxGeometry>
        </mxCell>
        <mxCell id="mK-5ngHfiEWChK2sJOaQ-21" value="&lt;div&gt;&lt;span style=&quot;background-color: transparent; color: light-dark(rgb(0, 0, 0), rgb(255, 255, 255));&quot;&gt;&lt;b&gt;&lt;font style=&quot;font-size: 14px;&quot;&gt;待进行&lt;/font&gt;&lt;/b&gt;&lt;/span&gt;&lt;/div&gt;" style="swimlane;fontStyle=0;align=center;verticalAlign=top;childLayout=stackLayout;horizontal=1;startSize=30;horizontalStack=0;resizeParent=1;resizeParentMax=0;resizeLast=0;collapsible=0;marginBottom=0;html=1;whiteSpace=wrap;rounded=1;" parent="1" vertex="1">
          <mxGeometry x="160" y="319" width="120" height="70" as="geometry" />
        </mxCell>
        <mxCell id="mK-5ngHfiEWChK2sJOaQ-22" value="do / 等待开始订单" style="text;html=1;strokeColor=none;fillColor=none;align=center;verticalAlign=middle;spacingLeft=4;spacingRight=4;overflow=hidden;rotatable=0;points=[[0,0.5],[1,0.5]];portConstraint=eastwest;whiteSpace=wrap;" parent="mK-5ngHfiEWChK2sJOaQ-21" vertex="1">
          <mxGeometry y="30" width="120" height="40" as="geometry" />
        </mxCell>
        <mxCell id="_2dIT_EQDoWNExwNnxHi-4" value="&lt;div&gt;&lt;span style=&quot;background-color: transparent; color: light-dark(rgb(0, 0, 0), rgb(255, 255, 255));&quot;&gt;&lt;b&gt;&lt;font style=&quot;font-size: 14px;&quot;&gt;进行中&lt;/font&gt;&lt;/b&gt;&lt;/span&gt;&lt;/div&gt;" style="swimlane;fontStyle=0;align=center;verticalAlign=top;childLayout=stackLayout;horizontal=1;startSize=30;horizontalStack=0;resizeParent=1;resizeParentMax=0;resizeLast=0;collapsible=0;marginBottom=0;html=1;whiteSpace=wrap;rounded=1;" parent="1" vertex="1">
          <mxGeometry x="380" y="319" width="120" height="70" as="geometry" />
        </mxCell>
        <mxCell id="_2dIT_EQDoWNExwNnxHi-5" value="do / 等待&lt;span style=&quot;background-color: transparent; color: light-dark(rgb(0, 0, 0), rgb(255, 255, 255));&quot;&gt;完成任务&lt;/span&gt;" style="text;html=1;strokeColor=none;fillColor=none;align=center;verticalAlign=middle;spacingLeft=4;spacingRight=4;overflow=hidden;rotatable=0;points=[[0,0.5],[1,0.5]];portConstraint=eastwest;whiteSpace=wrap;" parent="_2dIT_EQDoWNExwNnxHi-4" vertex="1">
          <mxGeometry y="30" width="120" height="40" as="geometry" />
        </mxCell>
        <mxCell id="_2dIT_EQDoWNExwNnxHi-6" value="&lt;div&gt;&lt;span style=&quot;background-color: transparent; color: light-dark(rgb(0, 0, 0), rgb(255, 255, 255));&quot;&gt;&lt;b&gt;&lt;font style=&quot;font-size: 14px;&quot;&gt;取消&lt;/font&gt;&lt;/b&gt;&lt;/span&gt;&lt;/div&gt;" style="swimlane;fontStyle=0;align=center;verticalAlign=top;childLayout=stackLayout;horizontal=1;startSize=30;horizontalStack=0;resizeParent=1;resizeParentMax=0;resizeLast=0;collapsible=0;marginBottom=0;html=1;whiteSpace=wrap;rounded=1;" parent="1" vertex="1">
          <mxGeometry x="280" y="425" width="150" height="60" as="geometry" />
        </mxCell>
        <mxCell id="4TsXs6YmuCoAg7Lof6Ya-7" value="entry / 系统自动取消订单" style="text;html=1;align=center;verticalAlign=middle;resizable=0;points=[];autosize=1;strokeColor=none;fillColor=none;" vertex="1" parent="_2dIT_EQDoWNExwNnxHi-6">
          <mxGeometry y="30" width="150" height="30" as="geometry" />
        </mxCell>
        <mxCell id="_2dIT_EQDoWNExwNnxHi-8" value="&lt;div&gt;&lt;span style=&quot;background-color: transparent; color: light-dark(rgb(0, 0, 0), rgb(255, 255, 255));&quot;&gt;&lt;b&gt;&lt;font style=&quot;font-size: 14px;&quot;&gt;完成&lt;/font&gt;&lt;/b&gt;&lt;/span&gt;&lt;/div&gt;" style="swimlane;fontStyle=0;align=center;verticalAlign=top;childLayout=stackLayout;horizontal=1;startSize=30;horizontalStack=0;resizeParent=1;resizeParentMax=0;resizeLast=0;collapsible=0;marginBottom=0;html=1;whiteSpace=wrap;rounded=1;" parent="1" vertex="1">
          <mxGeometry x="650" y="319" width="120" height="70" as="geometry" />
        </mxCell>
        <mxCell id="_2dIT_EQDoWNExwNnxHi-9" value="do / 等待开始订单" style="text;html=1;strokeColor=none;fillColor=none;align=center;verticalAlign=middle;spacingLeft=4;spacingRight=4;overflow=hidden;rotatable=0;points=[[0,0.5],[1,0.5]];portConstraint=eastwest;whiteSpace=wrap;" parent="_2dIT_EQDoWNExwNnxHi-8" vertex="1">
          <mxGeometry y="30" width="120" height="40" as="geometry" />
        </mxCell>
        <mxCell id="_2dIT_EQDoWNExwNnxHi-10" style="edgeStyle=orthogonalEdgeStyle;rounded=0;orthogonalLoop=1;jettySize=auto;html=1;exitX=1;exitY=0.5;exitDx=0;exitDy=0;entryX=0;entryY=0.5;entryDx=0;entryDy=0;" parent="1" source="mK-5ngHfiEWChK2sJOaQ-22" target="_2dIT_EQDoWNExwNnxHi-5" edge="1">
          <mxGeometry relative="1" as="geometry" />
        </mxCell>
        <mxCell id="_2dIT_EQDoWNExwNnxHi-11" style="edgeStyle=orthogonalEdgeStyle;rounded=0;orthogonalLoop=1;jettySize=auto;html=1;exitX=1;exitY=0.5;exitDx=0;exitDy=0;entryX=0;entryY=0.5;entryDx=0;entryDy=0;" parent="1" source="_2dIT_EQDoWNExwNnxHi-5" target="_2dIT_EQDoWNExwNnxHi-9" edge="1">
          <mxGeometry relative="1" as="geometry" />
        </mxCell>
        <mxCell id="_2dIT_EQDoWNExwNnxHi-13" value="" style="ellipse;html=1;shape=endState;fillColor=strokeColor;" parent="1" vertex="1">
          <mxGeometry x="810" y="356" width="26" height="26" as="geometry" />
        </mxCell>
        <mxCell id="_2dIT_EQDoWNExwNnxHi-14" value="用户开始订单" style="text;html=1;align=center;verticalAlign=middle;whiteSpace=wrap;rounded=0;spacing=0;" parent="1" vertex="1">
          <mxGeometry x="295" y="339" width="70" height="30" as="geometry" />
        </mxCell>
        <mxCell id="4TsXs6YmuCoAg7Lof6Ya-1" value="用户提前结束 or&lt;div&gt;系统自动完成 or&lt;/div&gt;&lt;div&gt;设备由服务中→维修中&amp;nbsp;&lt;/div&gt;" style="text;html=1;align=center;verticalAlign=middle;whiteSpace=wrap;rounded=0;spacing=0;" vertex="1" parent="1">
          <mxGeometry x="510" y="330" width="130" height="30" as="geometry" />
        </mxCell>
        <mxCell id="4TsXs6YmuCoAg7Lof6Ya-3" style="edgeStyle=orthogonalEdgeStyle;rounded=0;orthogonalLoop=1;jettySize=auto;html=1;exitX=1;exitY=0.5;exitDx=0;exitDy=0;entryX=0;entryY=0.5;entryDx=0;entryDy=0;" edge="1" parent="1" source="_2dIT_EQDoWNExwNnxHi-9" target="_2dIT_EQDoWNExwNnxHi-13">
          <mxGeometry relative="1" as="geometry" />
        </mxCell>
        <mxCell id="4TsXs6YmuCoAg7Lof6Ya-4" value="" style="endArrow=classic;html=1;rounded=0;exitX=0.232;exitY=1.047;exitDx=0;exitDy=0;exitPerimeter=0;" edge="1" parent="1" source="mK-5ngHfiEWChK2sJOaQ-22">
          <mxGeometry width="50" height="50" relative="1" as="geometry">
            <mxPoint x="230" y="500" as="sourcePoint" />
            <mxPoint x="280" y="450" as="targetPoint" />
          </mxGeometry>
        </mxCell>
        <mxCell id="4TsXs6YmuCoAg7Lof6Ya-5" value="用户超时&lt;div&gt;未开始订单&lt;/div&gt;" style="text;html=1;align=center;verticalAlign=middle;whiteSpace=wrap;rounded=0;" vertex="1" parent="1">
          <mxGeometry x="150" y="410" width="80" height="30" as="geometry" />
        </mxCell>
        <mxCell id="4TsXs6YmuCoAg7Lof6Ya-9" value="" style="ellipse;html=1;shape=endState;fillColor=strokeColor;" vertex="1" parent="1">
          <mxGeometry x="474" y="442" width="26" height="26" as="geometry" />
        </mxCell>
        <mxCell id="4TsXs6YmuCoAg7Lof6Ya-11" value="" style="endArrow=classic;html=1;rounded=0;entryX=0;entryY=0.5;entryDx=0;entryDy=0;" edge="1" parent="1" target="4TsXs6YmuCoAg7Lof6Ya-9">
          <mxGeometry width="50" height="50" relative="1" as="geometry">
            <mxPoint x="430" y="455" as="sourcePoint" />
            <mxPoint x="480" y="405" as="targetPoint" />
          </mxGeometry>
        </mxCell>
      </root>
    </mxGraphModel>
  </diagram>
</mxfile>
